# xmcd CD database file
#
# Track frame offsets:
#	150
#	15423
#	38215
#	61307
#	79868
#	97749
#	115540
#	133977
#	154650
#	172223
#	191155
#	197842
#	215268
#	234433
#	260326
#
# Disc length: 3704 seconds
#
# Revision: 0
# Processed by: cddbd v1.5.2PL0 Copyright (c) Steve Scherf et al.
# Submitted via: Feurio! 1.68 - http://www.feurio.com
#
DISCID=c60e760f
DTITLE=BBC Blues Sessions   Volume 3 - Johnny Jones With Mo' Indigo, Terrry 
DTITLE=Callier, Tony Joe White, Sean Webster
DYEAR=1900
DGENRE=
TTITLE0=Johnny Jones With Mo' Indigo - The Blues Is In The House
TTITLE1=Johnny Jones With Mo' Indigo - I Was Raised On The Blues
TTITLE2=Johnny Jones With Mo' Indigo - Don't Throw Your Love On Me So Strong
TTITLE3=Terry Callier - Lookin' Out
TTITLE4=Terry Callier - Midnight Mile
TTITLE5=Terry Callier - Blues For Billie Holliday
TTITLE6=Tony Joe White - Not One Bad Thought
TTITLE7=Tony Joe White - Keeper Of The Fire
TTITLE8=Tony Joe White - Did Somebody Make A Fool Out Of You
TTITLE9=Tony Joe White - Who You Gonna Hoo-Doo Now
TTITLE10=Tony Joe White - Scratch My Back
TTITLE11=Tony Joe White - Do You Have A Garter Belt
TTITLE12=Sean Webster - Last Night
TTITLE13=Sean Webster - So Rare
TTITLE14=Sean Webster - Missing You
EXTD=
EXTT0=
EXTT1=
EXTT2=
EXTT3=
EXTT4=
EXTT5=
EXTT6=
EXTT7=
EXTT8=
EXTT9=
EXTT10=
EXTT11=
EXTT12=
EXTT13=
EXTT14=
PLAYORDER=
